<svg width="47" height="47" viewBox="0 0 47 47" fill="none" xmlns="http://www.w3.org/2000/svg">
<rect width="47" height="47" fill="black" fill-opacity="0.01"/>
<rect width="47" height="47" rx="2.91322" fill="url(#paint0_linear_76_54)"/>
<rect x="0.0971074" y="0.0971074" width="46.8058" height="46.8058" rx="2.81612" stroke="url(#paint1_linear_76_54)" stroke-opacity="0.2" stroke-width="0.194215"/>
<path opacity="0.7" fill-rule="evenodd" clip-rule="evenodd" d="M11.7117 23.0571C18.4212 20.1029 22.8878 18.1398 25.1307 17.1875C31.5143 14.4859 32.8562 14.0194 33.7189 14C33.9106 14 34.3323 14.0389 34.6199 14.2721C34.8499 14.4665 34.9074 14.7191 34.9458 14.9135C34.9841 15.1078 35.0225 15.516 34.9841 15.827C34.6391 19.5198 33.1438 28.4797 32.377 32.6002C32.0511 34.3494 31.4185 34.9325 30.8051 34.9908C29.4632 35.1074 28.4471 34.0967 27.1628 33.2415C25.1307 31.9005 23.9997 31.0647 22.0252 29.7431C19.744 28.2271 21.22 27.3913 22.5236 26.0308C22.8687 25.681 28.7539 20.2389 28.8689 19.753C28.8881 19.6947 28.8881 19.4615 28.7539 19.3449C28.6197 19.2283 28.428 19.2671 28.2746 19.306C28.0637 19.3449 24.8432 21.5217 18.5746 25.817C17.6544 26.4584 16.8301 26.7694 16.0825 26.7499C15.2582 26.7305 13.6862 26.2835 12.4977 25.8948C11.0599 25.4283 9.90974 25.1756 10.0056 24.3593C10.0631 23.9317 10.6382 23.5042 11.7117 23.0571Z" fill="white"/>
<defs>
<linearGradient id="paint0_linear_76_54" x1="8.75443e-08" y1="2.33058" x2="47" y2="49.3306" gradientUnits="userSpaceOnUse">
<stop/>
<stop offset="1" stop-color="#161616"/>
</linearGradient>
<linearGradient id="paint1_linear_76_54" x1="3.59298" y1="-5.27948e-07" x2="43.5041" y2="50.2045" gradientUnits="userSpaceOnUse">
<stop stop-color="white"/>
<stop offset="1" stop-color="#545454"/>
</linearGradient>
</defs>
</svg>
