<svg width="14" height="14" viewBox="0 0 14 14" fill="none" xmlns="http://www.w3.org/2000/svg">
<path d="M12.4896 6.93267C12.4284 8.06581 12.0404 9.15697 11.3723 10.0743C10.7042 10.9915 9.78471 11.6957 8.72499 12.1016C7.66527 12.5074 6.51066 12.5976 5.40076 12.3613C4.29085 12.125 3.27316 11.5722 2.4707 10.7699C1.66824 9.96748 1.11537 8.94984 0.878925 7.83996C0.64248 6.73008 0.732581 5.57547 1.13834 4.5157C1.54409 3.45593 2.24813 2.53638 3.16535 1.8682C4.08256 1.20003 5.17369 0.811829 6.30682 0.750539C6.57115 0.736181 6.70952 1.05077 6.56919 1.27464C6.09985 2.02557 5.89888 2.91342 5.99908 3.79328C6.09928 4.67313 6.49474 5.49305 7.12091 6.11923C7.74709 6.74541 8.56701 7.14086 9.44687 7.24106C10.3267 7.34127 11.2146 7.14029 11.9655 6.67095C12.19 6.53063 12.504 6.66834 12.4896 6.93267Z" stroke="currentColor" stroke-width="1.5" stroke-linecap="round" stroke-linejoin="round"/>
</svg>
