<svg width="43" height="43" viewBox="0 0 43 43" fill="none" xmlns="http://www.w3.org/2000/svg">
<path d="M21.5 0C9.62578 0 0 9.6258 0 21.5C0 33.3742 9.62578 43 21.5 43C33.3741 43 43 33.3742 43 21.5C42.9999 9.6258 33.374 0 21.5 0ZM15.7637 31.8943H11.0432V16.6435H15.7637V31.8943ZM13.381 14.6463C11.8393 14.6463 10.5895 13.3863 10.5895 11.8323C10.5895 10.2781 11.8395 9.01821 13.381 9.01821C14.9225 9.01821 16.1723 10.2781 16.1723 11.8323C16.1724 13.3864 14.9226 14.6463 13.381 14.6463ZM33.4539 31.8943H28.7563V23.8889C28.7563 21.6933 27.9223 20.4676 26.1861 20.4676C24.2966 20.4676 23.3095 21.7441 23.3095 23.8889V31.8943H18.782V16.6435H23.3095V18.6976C23.3095 18.6976 24.6714 16.1783 27.9052 16.1783C31.139 16.1783 33.454 18.1529 33.454 22.2377L33.4539 31.8943Z" fill="#000000"/>
</svg>
