<svg width="43" height="43" viewBox="0 0 43 43" fill="none" xmlns="http://www.w3.org/2000/svg">
<path d="M21.5 43C33.3741 43 43 33.3741 43 21.5C43 9.62588 33.3741 0 21.5 0C9.62588 0 0 9.62588 0 21.5C0 33.3741 9.62588 43 21.5 43Z" fill="#000000"/>
<path fill-rule="evenodd" clip-rule="evenodd" d="M9.72079 21.2673C15.9864 18.5462 20.1575 16.7381 22.252 15.8609C28.2133 13.3726 29.4664 12.943 30.272 12.925C30.451 12.925 30.8448 12.9609 31.1134 13.1757C31.3282 13.3547 31.3819 13.5874 31.4177 13.7664C31.4535 13.9454 31.4893 14.3214 31.4535 14.6078C31.1313 18.0091 29.7349 26.2619 29.0189 30.057C28.7145 31.6682 28.1238 32.2052 27.5509 32.2589C26.2978 32.3663 25.349 31.4355 24.1496 30.6478C22.252 29.4126 21.1958 28.6428 19.3519 27.4255C17.2216 26.0291 18.6001 25.2594 19.8174 24.0062C20.1396 23.684 25.6354 18.6715 25.7429 18.224C25.7608 18.1703 25.7608 17.9554 25.6354 17.848C25.5101 17.7406 25.3311 17.7764 25.1879 17.8122C24.991 17.848 21.9835 19.853 16.1296 23.8093C15.2703 24.4001 14.5006 24.6865 13.8024 24.6686C13.0326 24.6507 11.5647 24.239 10.4548 23.8809C9.11213 23.4513 8.03802 23.2186 8.12753 22.4667C8.18124 22.0728 8.71829 21.679 9.72079 21.2673Z" fill="white"/>
</svg>
